<svg width="512" height="512" viewBox="0 0 512 512" fill="none" xmlns="http://www.w3.org/2000/svg">
  <g clip-path="url(#clip0_37_14)">
    <path
      d="M508.502 187.605C504.138 173.715 495.42 161.598 483.637 153.046C471.853 144.494 457.631 139.961 443.072 140.117H349.867L321.558 51.8823C317.106 37.9935 308.358 25.8773 296.576 17.2811C284.793 8.68483 270.585 4.05273 256 4.05273C241.415 4.05273 227.207 8.68483 215.425 17.2811C203.642 25.8773 194.895 37.9935 190.443 51.8823L162.134 140.117H68.9282C54.4161 140.138 40.2816 144.744 28.5438 153.278C16.8059 161.811 8.06508 173.836 3.56973 187.635C-0.925614 201.433 -0.945511 216.299 3.51288 230.109C7.97128 243.92 16.6799 255.968 28.3949 264.533L104.256 320L75.4135 409.322C70.7525 423.176 70.6934 438.165 75.2452 452.055C79.797 465.945 88.7159 477.992 100.672 486.4C112.424 495.078 126.665 499.727 141.273 499.654C155.881 499.58 170.075 494.789 181.739 485.994L256 431.338L330.283 485.93C342.013 494.559 356.177 499.245 370.739 499.316C385.3 499.387 399.509 494.839 411.323 486.325C423.137 477.812 431.947 465.771 436.486 451.935C441.026 438.099 441.061 423.18 436.587 409.322L407.744 320L483.691 264.533C495.54 256.075 504.351 244.027 508.819 230.172C513.287 216.317 513.176 201.392 508.502 187.605Z"
      fill="black" />
  </g>
  <defs>
    <clipPath id="clip0_37_14">
      <rect width="512" height="512" fill="white" />
    </clipPath>
  </defs>
</svg>